<svg xmlns="http://www.w3.org/2000/svg" viewBox="0 0 167.4 64.6"><style>.st0{fill:none;stroke:#000000;stroke-width:5.6;stroke-linecap:round;}</style><g id="Linie"><path d="M4.1 41V7h12c2.3 0 4.5.4 6.5 1.1 2 .8 3.8 1.9 5.3 3.3 1.5 1.5 2.7 3.2 3.5 5.4.9 2.1 1.3 4.6 1.3 7.3s-.4 5.1-1.3 7.2c-.9 2.1-2 3.9-3.6 5.3-1.5 1.4-3.3 2.5-5.3 3.3-2 .7-4.2 1.1-6.5 1.1H4.1zm11.8-5.3c1.5 0 2.9-.2 4.2-.7s2.5-1.2 3.4-2.2c1-1 1.8-2.2 2.3-3.6.6-1.5.9-3.2.9-5.2s-.3-3.7-.8-5.2c-.6-1.5-1.3-2.7-2.3-3.7-1-1-2.1-1.7-3.4-2.2-1.3-.5-2.7-.7-4.2-.7H9.8v23.5h6.1zM157.3 41l-16.8-25.8V41h-5.8V7h7.3l15.5 24.1V7h5.8v34h-6z"/><path id="Beispiel" class="st0" d="M129.1 24c-5.7 0-11.6 4.6-19.7 13.1-8.2 8.5-12 24.5-22.4 22.7-6-1.1 0-10.5 1.4-13 2-3.6 4.2-7 6.2-10.6 2-3.5 4.9-8 4.6-12.2-.1-1.6-.8-3.2-1.7-4.5-.8-1.3-1.9-2.5-3.3-2.9-4.1-1.3-8.3 3-11.7 4.7-1 .5-2.1.9-3.1.8-1-.1-1.8-.7-2.5-1.4-1.9-1.9-2.9-4.5-4-6.9-1.1-2.5-2.5-5-4.9-6.2-4.1-2.2-7.3.8-6.8 4.9.4 3.2 1.8 6.4 3.1 9.4 3.6 8.5 15.5 24.3 7.6 32s-15.9-.7-12-15.1c3-11.2-10.3-14.9-21.5-14.4"/></g></svg>